<?xml version="1.0" encoding="utf-8"?>
<svg version="1.1" xmlns:xlink="http://www.w3.org/1999/xlink" width="23px" height="29px" xmlns="http://www.w3.org/2000/svg">
  <defs>
    <mask fill="white" id="clip311">
      <path d="M 19.903265329356138 10.149949911271849  C 19.903265329356138 10.149949911271849  10.717143368831037 10.149949911271849  10.717143368831037 10.149949911271849  C 10.717143368831037 10.149949911271849  10.717143368831037 4.3499924713261375  10.717143368831037 4.3499924713261375  C 10.717143368831037 1.9475453953602817  8.660811462887386 0  6.124080766240858 0  C 6.124080766240858 0  0 13.049929783592747  0 13.049929783592747  L 0 28.99981255138545  C 0 28.99981255138545  17.790456142806022 28.99981255138545  17.790456142806022 28.99981255138545  C 19.317308777476676 29.016165210330534  20.623611395557262 27.964599537068676  20.852498959417897 26.53482946785468  C 20.852498959417897 26.53482946785468  22.965304901312756 13.484924267686793  22.965304901312756 13.484924267686793  C 23.10011975698537 12.643688783828301  22.83806184159508 11.788840084410685  22.248618958337286 11.146817008084874  C 21.659091054972148 10.50479393175906  20.801634121246135 10.140283315198502  19.903265329356138 10.149949911271849  Z " fill-rule="evenodd" />
    </mask>
  </defs>
  <g transform="matrix(1 0 0 1 -8 0 )">
    <path d="M 19.903265329356138 10.149949911271849  C 19.903265329356138 10.149949911271849  10.717143368831037 10.149949911271849  10.717143368831037 10.149949911271849  C 10.717143368831037 10.149949911271849  10.717143368831037 4.3499924713261375  10.717143368831037 4.3499924713261375  C 10.717143368831037 1.9475453953602817  8.660811462887386 0  6.124080766240858 0  C 6.124080766240858 0  0 13.049929783592747  0 13.049929783592747  L 0 28.99981255138545  C 0 28.99981255138545  17.790456142806022 28.99981255138545  17.790456142806022 28.99981255138545  C 19.317308777476676 29.016165210330534  20.623611395557262 27.964599537068676  20.852498959417897 26.53482946785468  C 20.852498959417897 26.53482946785468  22.965304901312756 13.484924267686793  22.965304901312756 13.484924267686793  C 23.10011975698537 12.643688783828301  22.83806184159508 11.788840084410685  22.248618958337286 11.146817008084874  C 21.659091054972148 10.50479393175906  20.801634121246135 10.140283315198502  19.903265329356138 10.149949911271849  Z " fill-rule="nonzero" fill="#ffffff" stroke="none" fill-opacity="0" transform="matrix(1 0 0 1 8 0 )" />
    <path d="M 19.903265329356138 10.149949911271849  C 19.903265329356138 10.149949911271849  10.717143368831037 10.149949911271849  10.717143368831037 10.149949911271849  C 10.717143368831037 10.149949911271849  10.717143368831037 4.3499924713261375  10.717143368831037 4.3499924713261375  C 10.717143368831037 1.9475453953602817  8.660811462887386 0  6.124080766240858 0  C 6.124080766240858 0  0 13.049929783592747  0 13.049929783592747  L 0 28.99981255138545  C 0 28.99981255138545  17.790456142806022 28.99981255138545  17.790456142806022 28.99981255138545  C 19.317308777476676 29.016165210330534  20.623611395557262 27.964599537068676  20.852498959417897 26.53482946785468  C 20.852498959417897 26.53482946785468  22.965304901312756 13.484924267686793  22.965304901312756 13.484924267686793  C 23.10011975698537 12.643688783828301  22.83806184159508 11.788840084410685  22.248618958337286 11.146817008084874  C 21.659091054972148 10.50479393175906  20.801634121246135 10.140283315198502  19.903265329356138 10.149949911271849  Z " stroke-width="10.666666984558105" stroke="#000000" fill="none" transform="matrix(1 0 0 1 8 0 )" mask="url(#clip311)" />
  </g>
</svg>