<?xml version="1.0" encoding="utf-8"?>
<svg version="1.1" xmlns:xlink="http://www.w3.org/1999/xlink" width="31px" height="29px" xmlns="http://www.w3.org/2000/svg">
  <defs>
    <mask fill="white" id="clip315">
      <path d="M 31 24.857142857142858  L 31 0  L 0 0  L 0 24.857142857142858  L 6.9750000000000005 24.857142857142858  L 6.9750000000000005 29.000000000000007  L 14.725 24.857142857142858  L 31 24.857142857142858  Z " fill-rule="evenodd" />
    </mask>
  </defs>
  <g transform="matrix(1 0 0 1 -118 0 )">
    <path d="M 31 24.857142857142858  L 31 0  L 0 0  L 0 24.857142857142858  L 6.9750000000000005 24.857142857142858  L 6.9750000000000005 29.000000000000007  L 14.725 24.857142857142858  L 31 24.857142857142858  Z " fill-rule="nonzero" fill="#2f88ff" stroke="none" transform="matrix(1 0 0 1 118 0 )" />
    <path d="M 31 24.857142857142858  L 31 0  L 0 0  L 0 24.857142857142858  L 6.9750000000000005 24.857142857142858  L 6.9750000000000005 29.000000000000007  L 14.725 24.857142857142858  L 31 24.857142857142858  Z " stroke-width="10.666666984558105" stroke="#000000" fill="none" transform="matrix(1 0 0 1 118 0 )" mask="url(#clip315)" />
  </g>
</svg>