<?xml version="1.0" encoding="utf-8"?>
<svg version="1.1" xmlns:xlink="http://www.w3.org/1999/xlink" width="23px" height="29px" xmlns="http://www.w3.org/2000/svg">
  <defs>
    <mask fill="white" id="clip313">
      <path d="M 3.096733172375125 18.850058232086358  C 3.096733172375125 18.850058232086358  12.282868615822654 18.850058232086358  12.282868615822654 18.850058232086358  C 12.282868615822654 18.850058232086358  12.282868615822654 24.65002627357986  12.282868615822654 24.65002627357986  C 12.282868615822654 27.052501622031958  14.339197910952524 29  16.875925386848824 29  C 16.875925386848824 29  23 15.950074211339613  23 15.950074211339613  L 23 0.0001879346814468574  C 23 0.0001879346814468574  5.209564011288846 0.0001879346814468574  5.209564011288846 0.0001879346814468574  C 3.6827133151806852 -0.016156696041358318  2.3764483509907013 1.0353778269529523  2.1475015586669253 2.4651745195654193  C 2.1475015586669253 2.4651745195654193  0.03469589114837303 15.51507745328426  0.03469589114837303 15.51507745328426  C -0.1001187933570917 16.35631436338305  0.16192350396365876 17.211165280354304  0.7514251579069433 17.853189445173413  C 1.3409268118502278 18.495213609992522  2.198399589932525 18.859724844548563  3.096733172375125 18.850058232086358  Z " fill-rule="evenodd" />
    </mask>
  </defs>
  <g transform="matrix(1 0 0 1 -59 0 )">
    <path d="M 3.096733172375125 18.850058232086358  C 3.096733172375125 18.850058232086358  12.282868615822654 18.850058232086358  12.282868615822654 18.850058232086358  C 12.282868615822654 18.850058232086358  12.282868615822654 24.65002627357986  12.282868615822654 24.65002627357986  C 12.282868615822654 27.052501622031958  14.339197910952524 29  16.875925386848824 29  C 16.875925386848824 29  23 15.950074211339613  23 15.950074211339613  L 23 0.0001879346814468574  C 23 0.0001879346814468574  5.209564011288846 0.0001879346814468574  5.209564011288846 0.0001879346814468574  C 3.6827133151806852 -0.016156696041358318  2.3764483509907013 1.0353778269529523  2.1475015586669253 2.4651745195654193  C 2.1475015586669253 2.4651745195654193  0.03469589114837303 15.51507745328426  0.03469589114837303 15.51507745328426  C -0.1001187933570917 16.35631436338305  0.16192350396365876 17.211165280354304  0.7514251579069433 17.853189445173413  C 1.3409268118502278 18.495213609992522  2.198399589932525 18.859724844548563  3.096733172375125 18.850058232086358  Z " fill-rule="nonzero" fill="#ffffff" stroke="none" fill-opacity="0" transform="matrix(1 0 0 1 59 0 )" />
    <path d="M 3.096733172375125 18.850058232086358  C 3.096733172375125 18.850058232086358  12.282868615822654 18.850058232086358  12.282868615822654 18.850058232086358  C 12.282868615822654 18.850058232086358  12.282868615822654 24.65002627357986  12.282868615822654 24.65002627357986  C 12.282868615822654 27.052501622031958  14.339197910952524 29  16.875925386848824 29  C 16.875925386848824 29  23 15.950074211339613  23 15.950074211339613  L 23 0.0001879346814468574  C 23 0.0001879346814468574  5.209564011288846 0.0001879346814468574  5.209564011288846 0.0001879346814468574  C 3.6827133151806852 -0.016156696041358318  2.3764483509907013 1.0353778269529523  2.1475015586669253 2.4651745195654193  C 2.1475015586669253 2.4651745195654193  0.03469589114837303 15.51507745328426  0.03469589114837303 15.51507745328426  C -0.1001187933570917 16.35631436338305  0.16192350396365876 17.211165280354304  0.7514251579069433 17.853189445173413  C 1.3409268118502278 18.495213609992522  2.198399589932525 18.859724844548563  3.096733172375125 18.850058232086358  Z " stroke-width="10.666666984558105" stroke="#000000" fill="none" transform="matrix(1 0 0 1 59 0 )" mask="url(#clip313)" />
  </g>
</svg>