<?xml version="1.0" encoding="utf-8"?>
<svg version="1.1" xmlns:xlink="http://www.w3.org/1999/xlink" width="8px" height="16px" xmlns="http://www.w3.org/2000/svg">
  <defs>
    <mask fill="white" id="clip312">
      <path d="M 8 15.999472060398734  L 8 0.00046923478292596507  C 8 0.00046923478292596507  3.728000217013889 0.00046923478292596507  3.728000217013889 0.00046923478292596507  C 1.8536179860432942 -0.0293699471233556  0.2512888908386231 1.367952540366018  0 3.0398266344003004  C 0 3.0398266344003004  0 13.119549328784306  0 13.119549328784306  C 0.2512888908386231 14.791503338531353  1.8536179860432942 16.029311242305017  3.728000217013889 15.999472060398734  C 3.728000217013889 15.999472060398734  8 15.999472060398734  8 15.999472060398734  Z " fill-rule="evenodd" />
    </mask>
  </defs>
  <g transform="matrix(1 0 0 1 0 -13 )">
    <path d="M 8 15.999472060398734  L 8 0.00046923478292596507  C 8 0.00046923478292596507  3.728000217013889 0.00046923478292596507  3.728000217013889 0.00046923478292596507  C 1.8536179860432942 -0.0293699471233556  0.2512888908386231 1.367952540366018  0 3.0398266344003004  C 0 3.0398266344003004  0 13.119549328784306  0 13.119549328784306  C 0.2512888908386231 14.791503338531353  1.8536179860432942 16.029311242305017  3.728000217013889 15.999472060398734  C 3.728000217013889 15.999472060398734  8 15.999472060398734  8 15.999472060398734  Z " fill-rule="nonzero" fill="#2f88ff" stroke="none" transform="matrix(1 0 0 1 0 13 )" />
    <path d="M 8 15.999472060398734  L 8 0.00046923478292596507  C 8 0.00046923478292596507  3.728000217013889 0.00046923478292596507  3.728000217013889 0.00046923478292596507  C 1.8536179860432942 -0.0293699471233556  0.2512888908386231 1.367952540366018  0 3.0398266344003004  C 0 3.0398266344003004  0 13.119549328784306  0 13.119549328784306  C 0.2512888908386231 14.791503338531353  1.8536179860432942 16.029311242305017  3.728000217013889 15.999472060398734  C 3.728000217013889 15.999472060398734  8 15.999472060398734  8 15.999472060398734  Z " stroke-width="10.666666984558105" stroke="#000000" fill="none" transform="matrix(1 0 0 1 0 13 )" mask="url(#clip312)" />
  </g>
</svg>