<?xml version="1.0" encoding="utf-8"?>
<svg version="1.1" xmlns:xlink="http://www.w3.org/1999/xlink" width="8px" height="16px" xmlns="http://www.w3.org/2000/svg">
  <defs>
    <mask fill="white" id="clip314">
      <path d="M 0 15.999531585061034  L 0 0.0005278539276215955  C 0 0.0005278539276215955  4.271999782986112 0.0005278539276215955  4.271999782986112 0.0005278539276215955  C 6.146399815877279 -0.029302242428344765  7.748711109161377 1.2084668670335728  8 2.8803441095152604  C 8 2.8803441095152604  8 12.959724611686209  8 12.959724611686209  C 7.748711109161377 14.631537962065066  6.146399815877279 16.029369682830065  4.271999782986112 15.999531585061034  C 4.271999782986112 15.999531585061034  0 15.999531585061034  0 15.999531585061034  Z " fill-rule="evenodd" />
    </mask>
  </defs>
  <g transform="matrix(1 0 0 1 -82 0 )">
    <path d="M 0 15.999531585061034  L 0 0.0005278539276215955  C 0 0.0005278539276215955  4.271999782986112 0.0005278539276215955  4.271999782986112 0.0005278539276215955  C 6.146399815877279 -0.029302242428344765  7.748711109161377 1.2084668670335728  8 2.8803441095152604  C 8 2.8803441095152604  8 12.959724611686209  8 12.959724611686209  C 7.748711109161377 14.631537962065066  6.146399815877279 16.029369682830065  4.271999782986112 15.999531585061034  C 4.271999782986112 15.999531585061034  0 15.999531585061034  0 15.999531585061034  Z " fill-rule="nonzero" fill="#2f88ff" stroke="none" transform="matrix(1 0 0 1 82 0 )" />
    <path d="M 0 15.999531585061034  L 0 0.0005278539276215955  C 0 0.0005278539276215955  4.271999782986112 0.0005278539276215955  4.271999782986112 0.0005278539276215955  C 6.146399815877279 -0.029302242428344765  7.748711109161377 1.2084668670335728  8 2.8803441095152604  C 8 2.8803441095152604  8 12.959724611686209  8 12.959724611686209  C 7.748711109161377 14.631537962065066  6.146399815877279 16.029369682830065  4.271999782986112 15.999531585061034  C 4.271999782986112 15.999531585061034  0 15.999531585061034  0 15.999531585061034  Z " stroke-width="10.666666984558105" stroke="#000000" fill="none" transform="matrix(1 0 0 1 82 0 )" mask="url(#clip314)" />
  </g>
</svg>